<?xml version="1.0" encoding="UTF-8"?>
<!DOCTYPE svg PUBLIC "-//W3C//DTD SVG 1.1//EN" "http://www.w3.org/Graphics/SVG/1.1/DTD/svg11.dtd">
<svg xmlns="http://www.w3.org/2000/svg" xml:space="preserve" style="shape-rendering:geometricPrecision; text-rendering:geometricPrecision; image-rendering:optimizeQuality; fill-rule:evenodd; clip-rule:evenodd" viewBox="0 0 2085893 739094" xmlns:xlink="http://www.w3.org/1999/xlink">
 <defs>
  <style type="text/css">
   <![CDATA[
    .fill_lightBlack {fill:white;fill-rule:nonzero}
   ]]>
  </style>
 </defs>
 <g>
  <path class="fill_lightBlack" d="M147066 163144c2582,-3438 4758,-6029 6509,-7793 2590,-3502 4758,-6093 6509,-7837 1727,-2570 4326,-5202 7829,-7793l4546 -4566 5841 -4567 3910 -1911c1336,-914 3275,-1764 5882,-2676 1271,-383 2680,-829 4236,-1253 1507,-426 3357,-680 5507,-680l5873 0 6510 1316c4326,2187 8033,4546 11055,7179 1734,1297 3055,2592 3927,3888 856,913 1719,2187 2607,3927l3225 6502c873,2611 1328,4118 1328,4541 424,1764 750,3270 946,4546 244,1319 317,2656 317,3910 456,1759 676,3927 676,6517 0,2187 -114,4123 -318,5861 -227,1764 -358,3695 -358,5862 -423,6945 -1718,13657 -3877,20199 -1312,5222 -3039,11255 -5222,18200 -2159,6094 -4228,12041 -6159,17947 -1947,5841 -4025,11784 -6192,17862 -2191,6094 -4342,11955 -6517,17584 -2191,5670 -4342,11531 -6500,17585l-12383 34508 -2599 5821 2599 -3885 18883 -31242c3047,-5201 6200,-10533 9434,-15971 3275,-5414 6599,-10725 10110,-15947l2607 -3885 2590 -3230 5874 -7858c3869,-5181 8228,-10170 13002,-14973l8448 -7116c1751,-1759 3274,-2842 4586,-3266l5189 -3931 6517 -3250c855,-424 1956,-848 3242,-1276 1303,-423 2835,-912 4554,-1336l5874 -1315 9099 0c871,0 1531,125 1964,358 440,235 1083,342 1963,342 871,445 1947,741 3235,933 1311,236 2622,786 3927,1658 3462,1739 5849,3250 7168,4566l5841 5841c1719,2209 2957,4119 3585,5862 651,1764 1401,3462 2281,5222 839,2594 1727,5649 2590,9091l0 7177c448,2187 571,4228 326,6159 -196,1996 -546,4016 -946,6224l-1971 10407c-1311,6074 -3275,12147 -5866,18221 -888,3507 -1947,6521 -3250,9111 -1295,2632 -2590,5438 -3910,8453l-6509 16969 -2592 5181 3911 -4546 20806 -28012c6973,-9939 13785,-19836 20505,-29625 6745,-9792 13148,-19624 19209,-29604l17982 -28543 3476 -15102 4561 -17564c1752,-7368 5662,-13039 11748,-16945 6061,-3885 12782,-4736 20162,-2549 6925,1719 12358,5604 16269,11703 3918,6052 5001,12573 3259,19514 -871,2590 -1736,4803 -2624,6521l-3225 7178 -3927 7796c-1719,3442 -2827,6093 -3227,7771l-3935 7837 -13002 31242c-4317,10872 -8350,21617 -12031,32236 -3723,10643 -7275,21388 -10746,32219 -1751,5181 -3282,10533 -4561,15947 -1319,5417 -2632,10749 -3918,15931l-2590 15673c0,1276 -115,2590 -351,3927 -212,1256 -318,2570 -318,3890l0 3227c864,-423 2200,-1506 3919,-3227l11063 -11746 11070 -12383c7381,-9108 14330,-17988 20839,-26672 3447,-4778 6843,-9303 10070,-13657 3275,-4355 6623,-8896 10109,-13699l19536 -27992c3478,-4733 6599,-9536 9426,-14333 2835,-4778 5955,-9514 9426,-14313 6077,-9959 12163,-19711 18256,-29286 6069,-9536 12146,-19283 18216,-29286 5629,-9112 11152,-18245 16586,-27352 5417,-9112 10753,-18416 15976,-27994l635 -1932 1319 -1976c1271,-2611 3447,-4332 6518,-5202 2997,-871 5841,-382 8431,1296 4790,3014 6509,7388 5221,13017l0 660 -106132 331368 5874 -9092c9979,-16053 20162,-31938 30606,-47546 10403,-15613 21247,-31009 32530,-46215 5213,-7793 10655,-15523 16284,-23108 5622,-7560 11308,-15076 16937,-22489l33189 -44896c10867,-15185 21498,-30369 31910,-45575 10394,-15185 19942,-30838 28650,-46850 649,-1046 1354,-1977 2119,-2791l0 -177961 65033 0 0 429429 -65033 0 0 -197699c-2226,3809 -4447,7638 -6672,11482l-31283 47551 -31877 45555 -31242 46252c-10419,15568 -20512,31222 -30289,46850 -9767,15634 -19438,31454 -28952,47511 -9109,16077 -18020,32215 -26688,48529 -8693,16264 -16937,32639 -24750,49120l-52276 136751 -1956 7132 -643 1319 0 681c-2599,7368 -7381,12634 -14338,15926 -6917,3270 -14077,3547 -21458,978 -6949,-2590 -12056,-7308 -15306,-14020 -3275,-6688 -3781,-13528 -1630,-20493 23007,-72060 48187,-143012 75503,-212864 2199,-5266 4228,-10448 6191,-15649 1972,-5181 4041,-10387 6192,-15633l82858 -233695 -18215 28648 -18884 28605c-1719,2612 -3365,5121 -4871,7500 -1532,2419 -2925,4924 -4228,7475l-9768 14313 -19543 28692 -10403 13633c-3470,5226 -6949,9964 -10435,14358 -1727,2187 -3478,4420 -5198,6819 -1751,2379 -3707,4673 -5874,6839l-12366 13674 -7161 6502 -5189 3270c-888,873 -1727,1381 -2607,1613 -871,213 -1963,786 -3267,1638l-1286 0c-432,0 -669,82 -669,293 0,257 -210,363 -651,363l-8455 0c-1288,-443 -2502,-893 -3568,-1316 -1076,-423 -2062,-851 -2942,-1295 -863,-893 -1654,-1552 -2289,-1976 -643,-424 -1189,-1084 -1629,-1956 -2167,-2570 -3674,-5201 -4546,-7816 -855,-3438 -1286,-5626 -1286,-6497 -441,-2146 -774,-4012 -1003,-5519 -212,-1552 -325,-3144 -325,-4864l0 -9771 1954 -18285 5882 -35128c2563,-13403 5449,-26895 8648,-40468l-24916 36603c-3462,4738 -6957,9666 -10427,14610 -3471,5014 -6941,9898 -10395,14676l-11063 14273 -5866 7177 -7153 7837 -4561 3906 -4586 1935 -3870 1315 -4571 0c-432,0 -660,-105 -660,-317 0,-233 -212,-363 -643,-363 -1319,0 -3250,-848 -5874,-2570l-1954 -2611c-873,-893 -1288,-1548 -1288,-1976 -432,-423 -1084,-1466 -1947,-3227 0,-447 -130,-871 -325,-1295 -228,-488 -318,-851 -318,-1319 0,-1699 -245,-3055 -676,-3906l0 -3227c0,-2656 220,-4590 676,-5926l0 -5181c407,-1724 725,-3230 970,-4526 187,-1336 317,-2847 317,-4586l2592 -18220 668 -9071 1286 -8518 1303 -17585c0,-2141 0,-4118 0,-5841 0,-1719 213,-3482 653,-5201 -1719,1336 -3470,2484 -5198,3588 -1751,1063 -3267,2274 -4554,3568l-13026 10407c-4783,3906 -9222,7731 -13336,11426 -4146,3674 -8596,7665 -13352,12040 -4343,3886 -8571,7903 -12701,12046 -4138,4097 -8146,8578 -12049,13315 -3885,4375 -7723,8663 -11388,13038 -3683,4310 -7471,8921 -11398,13678 -7820,9536 -14728,19111 -20814,28627 -871,1744 -2272,2717 -4228,2888 -1964,257 -3837,-61 -5556,-958 -3039,-1295 -4115,-3862 -3227,-7792l636 0 4553 -17565c873,-3034 1629,-5947 2274,-8814 643,-2782 1418,-5756 2289,-8769 1719,-6054 3259,-12066 4538,-17923 1319,-5841 2614,-11788 3935,-17885l6492 -35803c888,-6098 1727,-12066 2607,-17902 871,-5887 1719,-11834 2590,-17927 448,-6074 880,-12041 1319,-17882 433,-5882 643,-11849 643,-17927 0,-871 115,-1634 318,-2274 228,-655 318,-1376 318,-2293l-15609 18243 -22142 28672c-7390,9515 -14737,18966 -22126,28330 -7388,9324 -14753,18965 -22126,28990 -14322,20346 -28007,40565 -41034,60483l-18858 31282c-3030,5206 -5955,10513 -8791,15951 -2827,5439 -5548,10916 -8146,16566 -1288,3060 -3487,5011 -6500,5882 -3055,851 -5874,640 -8481,-660 -6077,-3055 -8236,-7600 -6509,-13674l676 -1934 80063 -246738c2175,-7410 6737,-12721 13662,-15947 6941,-3250 14102,-3804 21475,-1638 5213,1764 9352,4652 12383,8771 3047,4163 4969,8814 5841,14040l12391 -17608zm1890437 -46889l0 7890 -13327 0 0 36661 -9369 0 0 -36661 -13392 0 0 -7890 36088 0zm34998 0l13392 0 0 44550 -8676 0 0 -30134c0,-865 8,-2079 33,-3640 15,-1562 32,-2767 32,-3612l-8448 37387 -9042 0 -8383 -37387c0,845 8,2050 33,3612 15,1562 24,2775 24,3640l0 30134 -8676 0 0 -44550 13547 0 8114 35029 8049 -35029zm-89963 303l-72390 312871 -76683 0 -50916 -238025 -53376 238025 -77294 0 -69326 -312871 64414 0 44790 253979 57660 -253979 68708 0 52765 247231 49686 -247231 61961 0zm-567574 176682l0 34964c0,36196 23926,55214 50305,55214 26989,0 46622,-15336 46622,-47849l0 -8590 65026 0 0 2456c0,69323 -41710,107355 -114719,107355 -67477,0 -112877,-41104 -112877,-115946l0 -95702c0,-74842 46630,-115944 114107,-115944 67486,0 113490,38036 113490,111036l0 73006 -161953 0zm0 -46627l0 0 96927 0 0 -29446c0,-36806 -21474,-53983 -48464,-53983 -26989,0 -48463,17177 -48463,53983l0 29446zm-152935 -246613l65034 0 0 62574 -65034 0 0 -62574zm65034 116558l0 0 0 312871 -65034 0 0 -312871 65034 0zm-83282 0l-86500 312871 -80984 0 -82818 -312871 69319 0 55224 252139 58891 -252139 66867 0zm-247841 204286c0,73006 -51527,115946 -119013,115946 -67477,0 -119013,-44171 -119013,-115946l0 -95086c0,-71779 51536,-116560 119013,-116560 67485,0 119013,42945 119013,116560l0 95086zm-65026 -96316l0 0c0,-39873 -20854,-61958 -53987,-61958 -32513,0 -53368,22085 -53368,62573l0 96316c0,39873 20855,61959 53368,61959 33133,0 53987,-21470 53987,-61959l0 -96931zm-750652 -59449l0 0c433,0 636,233 636,660 0,-427 -90,-725 -318,-957 -203,-212 -318,-106 -318,297zm27357 11108l0 0 0 -660c0,423 -228,660 -668,660l668 0zm70939 75498l0 0c-432,0 -432,212 0,640l0 -640z"/>
 </g>
</svg>
